<svg xmlns="http://www.w3.org/2000/svg" width="1280" height="720" viewBox="0 0 1280 720">
<defs><filter id="s" x="-20%" y="-20%" width="140%" height="140%"><feDropShadow dx="0" dy="5" stdDeviation="5" flood-opacity=".22"/></filter></defs>
<rect width="1280" height="720" fill="#fff"/>
<path d="M0 0H835L820 20H0Z" fill="#df171d"/><path d="M835 0H1280V20H820Z" fill="#d9d4c8"/>
<rect y="20" width="1280" height="76" fill="#f4f2ef"/><text x="40" y="70" font-family="Pretendard,Noto Sans KR,sans-serif" font-size="35" font-weight="700">AI 도입으로 해결하고자 하는 3가지 문제</text>
<g filter="url(#s)"><rect x="110" y="170" width="260" height="395" rx="46" fill="#f5f3f0" stroke="#d2cfca"/><rect x="485" y="170" width="260" height="395" rx="46" fill="#f5f3f0" stroke="#d2cfca"/><rect x="860" y="170" width="260" height="395" rx="46" fill="#f5f3f0" stroke="#d2cfca"/></g>
<g fill="#df171d"><rect x="110" y="146" width="50" height="54"/><rect x="485" y="146" width="50" height="54"/><rect x="860" y="146" width="50" height="54"/></g>
<g fill="#fff" font-family="Arial,sans-serif" font-size="28"><text x="120" y="182">01</text><text x="495" y="182">02</text><text x="870" y="182">03</text></g>
<!-- stopwatch -->
<g stroke="#000" stroke-width="10" fill="none" stroke-linecap="round"><circle cx="240" cy="322" r="55"/><path d="M240 267v-25h23M282 273l14-14"/><path d="M240 322v-45M240 322h45"/></g>
<!-- checklist -->
<g stroke="#000" stroke-width="4" fill="none"><rect x="575" y="252" width="80" height="118"/><path d="M592 280l8 8 15-17M592 310l8 8 15-17M592 340l8 8 15-17"/><path d="M622 281h22M622 311h22M622 341h22"/></g>
<!-- people + growth -->
<g fill="#000"><circle cx="920" cy="278" r="9"/><circle cx="952" cy="278" r="9"/><circle cx="984" cy="278" r="9"/><path d="M910 292h20l8 48h-8l-5-28v48h-10v-48l-5 28h-8zM942 292h20l8 48h-8l-5-28v48h-10v-48l-5 28h-8zM974 292h20l8 48h-8l-5-28v48h-10v-48l-5 28h-8z"/><path d="M905 402l50-50 28 27 46-46v-19h18v48h-48v-18h19l-35 35-28-27-40 40z"/></g>
<g font-family="Pretendard,Noto Sans KR,sans-serif" text-anchor="middle" fill="#111"><text x="240" y="430" font-size="27" font-weight="700">반복 기록업무 부담 완화</text><text x="615" y="430" font-size="27" font-weight="700">기록의 품질·일관성 확보</text><text x="990" y="430" font-size="27" font-weight="700">인력 운영 효율화</text></g>
<g font-family="Pretendard,Noto Sans KR,sans-serif" text-anchor="middle" fill="#222" font-size="18"><text x="240" y="482"><tspan x="240">① 기록 정리/입력에</tspan><tspan x="240" dy="25">많은 시간을 투입</tspan></text><text x="615" y="482"><tspan x="615">① 개인 역량(스킬)에 따른</tspan><tspan x="615" dy="25">편차 발생 방지</tspan><tspan x="615" dy="25">② 가이드 기반의 표준화</tspan></text><text x="990" y="482"><tspan x="990">① 적정 사례 수 유지/감소</tspan><tspan x="990" dy="25">② 질적 향상을 위한 재투자</tspan></text></g>
<rect x="36" y="615" width="1208" height="50" rx="8" fill="#fff" stroke="#c9c6c2"/><text x="640" y="648" text-anchor="middle" font-family="Pretendard,Noto Sans KR,sans-serif" font-size="22">제한된 업무 시간 내에서 효율적이고 효과성 있는 업무 처리를 위한 AI 툴의 적극 활용이 필요함</text>
<path d="M0 707H814" stroke="#d6d1c4" stroke-width="3"/><path d="M814 707H1156" stroke="#df171d" stroke-width="3"/><path d="M1156 707l8-8 8 8-8 8zM1205 707l8-8 8 8-8 8zM1224 707l8-8 8 8-8 8zM1243 707l8-8 8 8-8 8z" fill="#df171d"/><text x="1180" y="713" font-family="Arial,sans-serif" font-size="16">2</text>
</svg>